<?xml version="1.0" encoding="UTF-8"?>
<svg id="Layer_1" data-name="Layer 1" xmlns="http://www.w3.org/2000/svg" viewBox="0 0 1914.53 542.71">
  <defs>
    <style>
      .cls-1 {
        fill: #f8f5ee;
      }
    </style>
  </defs>
  <g id="HubSpot_Logo" data-name="HubSpot Logo">
    <g>
      <polygon class="cls-1" points="207.35 307.15 66.76 307.15 66.76 455.25 0 455.25 0 89.83 66.76 89.83 66.76 242.93 207.35 242.93 207.35 89.83 274.09 89.83 274.09 455.25 207.35 455.25 207.35 307.15"/>
      <path class="cls-1" d="M487.7,337.14c0,30.43-24.79,55.2-55.22,55.2s-55.21-24.76-55.21-55.2v-156.51h-63.22v156.51c0,65.3,53.13,118.41,118.43,118.41s118.41-53.11,118.41-118.41v-156.51h-63.2v156.51Z"/>
      <path class="cls-1" d="M956.79,196.74c0-32.09,21.24-42.26,44.49-42.26,18.72,0,43.5,14.25,59.67,31.57l41.46-48.87c-20.72-27.99-62.68-47.34-97.07-47.34-68.78,0-118.34,40.22-118.34,106.91,0,123.7,151.21,84.49,151.21,153.73,0,21.36-20.73,40.21-44.49,40.21-37.43,0-49.58-18.33-66.76-37.67l-46.03,47.84c29.35,36.15,65.75,54.48,109.24,54.48,65.24,0,117.83-40.73,117.83-104.37,0-137.44-151.21-94.67-151.21-154.23Z"/>
      <path class="cls-1" d="M1892.26,396.87c-37.41,0-48.02-16.17-48.02-40.96v-109.73h58.14v-55.62h-58.14v-73.34l-64.21,28.82v223.53c0,57.15,39.43,85.98,93.52,85.98,8.09,0,19.23-.52,25.3-2.02l15.68-57.65c-7.08.49-15.17.99-22.27.99Z"/>
      <path class="cls-1" d="M728.67,182.46c-31.36,0-53.24,9.1-74.38,29.85v-120.29h-63.42v222.94c0,83.44,60.33,140.59,128.12,140.59,75.35,0,141.38-58.17,141.38-136.54s-60.88-136.55-131.69-136.55ZM728.27,391.72c-39.73,0-71.93-32.2-71.93-71.93s32.2-71.93,71.93-71.93,71.93,32.2,71.93,71.93-32.2,71.93-71.93,71.93Z"/>
      <path class="cls-1" d="M1417.18,315.72c0-78.37-66.02-136.54-141.38-136.54-67.79,0-128.12,57.15-128.12,140.59v222.94h63.42v-120.29c21.14,20.75,43.02,29.85,74.38,29.85,70.81,0,131.69-59.17,131.69-136.55ZM1357.02,314.94c0,39.72-32.2,71.93-71.93,71.93s-71.93-32.2-71.93-71.93,32.2-71.93,71.93-71.93,71.93,32.2,71.93,71.93Z"/>
      <path class="cls-1" d="M1622.1,176.11v-63.7c16.63-7.86,28.28-24.68,28.28-44.2v-1.47c0-26.94-22.04-48.98-48.98-48.98h-1.47c-26.94,0-48.99,22.04-48.99,48.98v1.47c0,19.52,11.65,36.35,28.28,44.2v63.7c-24.76,3.82-47.38,14.04-66.04,29.06l-174.91-136.06c1.15-4.43,1.96-9,1.96-13.79C1340.27,24.81,1315.57.04,1285.05,0c-30.52-.04-55.29,24.67-55.33,55.18-.04,30.52,24.67,55.29,55.19,55.32,9.95.01,19.15-2.81,27.22-7.4l172.06,133.85c-14.63,22.09-23.2,48.54-23.2,77.02s9.42,57.4,25.34,80.08l-52.33,52.32c-4.14-1.24-8.43-2.11-12.97-2.11-25.07,0-45.4,20.33-45.4,45.4s20.33,45.4,45.4,45.4,45.4-20.33,45.4-45.4c0-4.54-.87-8.84-2.11-12.97l51.76-51.76c23.49,17.94,52.75,28.71,84.59,28.71,77.14,0,139.68-62.54,139.68-139.68,0-69.83-51.3-127.53-118.24-137.87ZM1600.66,385.59c-39.55,0-71.62-32.06-71.62-71.61s32.07-71.61,71.62-71.61,71.61,32.06,71.61,71.61-32.07,71.61-71.61,71.61Z"/>
    </g>
  </g>
</svg>